<mxfile host="app.diagrams.net" agent="Mozilla/5.0 (Macintosh; Intel Mac OS X 10.15; rv:129.0) Gecko/20100101 Firefox/129.0" version="24.7.6">
  <diagram name="Page-1" id="MZt-BpJnLuoZkh_ZN1Ea">
    <mxGraphModel dx="2924" dy="1129" grid="1" gridSize="10" guides="1" tooltips="1" connect="1" arrows="1" fold="1" page="1" pageScale="1" pageWidth="850" pageHeight="1100" math="0" shadow="0">
      <root>
        <mxCell id="0" />
        <mxCell id="1" parent="0" />
        <mxCell id="V-7barsqVD6I8_-UEfz1-4" value="AWS Cloud &lt;br&gt;(env AWS account)" style="points=[[0,0],[0.25,0],[0.5,0],[0.75,0],[1,0],[1,0.25],[1,0.5],[1,0.75],[1,1],[0.75,1],[0.5,1],[0.25,1],[0,1],[0,0.75],[0,0.5],[0,0.25]];outlineConnect=0;gradientColor=none;html=1;whiteSpace=wrap;fontSize=12;fontStyle=0;container=1;pointerEvents=0;collapsible=0;recursiveResize=0;shape=mxgraph.aws4.group;grIcon=mxgraph.aws4.group_aws_cloud_alt;strokeColor=#232F3E;fillColor=none;verticalAlign=top;align=left;spacingLeft=30;fontColor=#232F3E;dashed=0;" parent="1" vertex="1">
          <mxGeometry x="-10" y="290" width="170" height="180" as="geometry" />
        </mxCell>
        <mxCell id="V-7barsqVD6I8_-UEfz1-19" value="Deployment role&lt;br&gt;(IAM)" style="sketch=0;points=[[0,0,0],[0.25,0,0],[0.5,0,0],[0.75,0,0],[1,0,0],[0,1,0],[0.25,1,0],[0.5,1,0],[0.75,1,0],[1,1,0],[0,0.25,0],[0,0.5,0],[0,0.75,0],[1,0.25,0],[1,0.5,0],[1,0.75,0]];outlineConnect=0;fontColor=#232F3E;fillColor=#DD344C;strokeColor=#ffffff;dashed=0;verticalLabelPosition=bottom;verticalAlign=top;align=center;html=1;fontSize=12;fontStyle=0;aspect=fixed;shape=mxgraph.aws4.resourceIcon;resIcon=mxgraph.aws4.identity_and_access_management;" parent="V-7barsqVD6I8_-UEfz1-4" vertex="1">
          <mxGeometry x="30" y="47" width="78" height="78" as="geometry" />
        </mxCell>
        <mxCell id="_00xn_NPz58ZkuRYXWhU-13" value="AWS Cloud (root AWS account)" style="points=[[0,0],[0.25,0],[0.5,0],[0.75,0],[1,0],[1,0.25],[1,0.5],[1,0.75],[1,1],[0.75,1],[0.5,1],[0.25,1],[0,1],[0,0.75],[0,0.5],[0,0.25]];outlineConnect=0;gradientColor=none;html=1;whiteSpace=wrap;fontSize=12;fontStyle=0;container=1;pointerEvents=0;collapsible=0;recursiveResize=0;shape=mxgraph.aws4.group;grIcon=mxgraph.aws4.group_aws_cloud_alt;strokeColor=#232F3E;fillColor=none;verticalAlign=top;align=left;spacingLeft=30;fontColor=#232F3E;dashed=0;" vertex="1" parent="1">
          <mxGeometry x="-410" y="230" width="350" height="260" as="geometry" />
        </mxCell>
        <mxCell id="_00xn_NPz58ZkuRYXWhU-14" value="Region" style="points=[[0,0],[0.25,0],[0.5,0],[0.75,0],[1,0],[1,0.25],[1,0.5],[1,0.75],[1,1],[0.75,1],[0.5,1],[0.25,1],[0,1],[0,0.75],[0,0.5],[0,0.25]];outlineConnect=0;gradientColor=none;html=1;whiteSpace=wrap;fontSize=12;fontStyle=0;container=1;pointerEvents=0;collapsible=0;recursiveResize=0;shape=mxgraph.aws4.group;grIcon=mxgraph.aws4.group_region;strokeColor=#00A4A6;fillColor=none;verticalAlign=top;align=left;spacingLeft=30;fontColor=#147EBA;dashed=1;" vertex="1" parent="_00xn_NPz58ZkuRYXWhU-13">
          <mxGeometry x="20" y="35" width="310" height="205" as="geometry" />
        </mxCell>
        <mxCell id="_00xn_NPz58ZkuRYXWhU-15" value="CodePipeline" style="points=[[0,0],[0.25,0],[0.5,0],[0.75,0],[1,0],[1,0.25],[1,0.5],[1,0.75],[1,1],[0.75,1],[0.5,1],[0.25,1],[0,1],[0,0.75],[0,0.5],[0,0.25]];outlineConnect=0;gradientColor=none;html=1;whiteSpace=wrap;fontSize=12;fontStyle=0;container=1;pointerEvents=0;collapsible=0;recursiveResize=0;shape=mxgraph.aws4.group;grIcon=mxgraph.aws4.group_iot_greengrass;strokeColor=#7AA116;fillColor=none;verticalAlign=top;align=left;spacingLeft=30;fontColor=#3F8624;dashed=0;" vertex="1" parent="_00xn_NPz58ZkuRYXWhU-14">
          <mxGeometry x="160" y="25" width="130" height="165" as="geometry" />
        </mxCell>
        <mxCell id="_00xn_NPz58ZkuRYXWhU-16" value="" style="sketch=0;outlineConnect=0;fontColor=#232F3E;gradientColor=none;strokeColor=#ffffff;fillColor=#232F3E;dashed=0;verticalLabelPosition=middle;verticalAlign=bottom;align=center;html=1;whiteSpace=wrap;fontSize=10;fontStyle=1;spacing=3;shape=mxgraph.aws4.productIcon;prIcon=mxgraph.aws4.codepipeline;" vertex="1" parent="_00xn_NPz58ZkuRYXWhU-15">
          <mxGeometry x="-1" y="-1" width="30" height="25" as="geometry" />
        </mxCell>
        <mxCell id="_00xn_NPz58ZkuRYXWhU-17" value="&lt;font style=&quot;font-size: 12px;&quot;&gt;AWS CodeBuild&lt;/font&gt;" style="sketch=0;outlineConnect=0;fontColor=#232F3E;gradientColor=none;strokeColor=#ffffff;fillColor=#232F3E;dashed=0;verticalLabelPosition=middle;verticalAlign=bottom;align=center;html=1;whiteSpace=wrap;fontSize=12;fontStyle=0;spacing=3;shape=mxgraph.aws4.productIcon;prIcon=mxgraph.aws4.codebuild;" vertex="1" parent="_00xn_NPz58ZkuRYXWhU-15">
          <mxGeometry x="29" y="40" width="80" height="110" as="geometry" />
        </mxCell>
        <mxCell id="_00xn_NPz58ZkuRYXWhU-18" style="edgeStyle=orthogonalEdgeStyle;rounded=0;orthogonalLoop=1;jettySize=auto;html=1;" edge="1" parent="_00xn_NPz58ZkuRYXWhU-14" source="_00xn_NPz58ZkuRYXWhU-19" target="_00xn_NPz58ZkuRYXWhU-15">
          <mxGeometry relative="1" as="geometry">
            <Array as="points">
              <mxPoint x="130" y="65" />
              <mxPoint x="130" y="65" />
            </Array>
          </mxGeometry>
        </mxCell>
        <mxCell id="_00xn_NPz58ZkuRYXWhU-19" value="webhooks&lt;br&gt;(AWS Lambda)" style="outlineConnect=0;dashed=0;verticalLabelPosition=bottom;verticalAlign=top;align=center;html=1;shape=mxgraph.aws3.lambda_function;fillColor=#F58534;gradientColor=none;" vertex="1" parent="_00xn_NPz58ZkuRYXWhU-14">
          <mxGeometry x="40" y="32" width="69" height="72" as="geometry" />
        </mxCell>
        <mxCell id="_00xn_NPz58ZkuRYXWhU-20" style="edgeStyle=orthogonalEdgeStyle;rounded=0;orthogonalLoop=1;jettySize=auto;html=1;" edge="1" parent="1" source="_00xn_NPz58ZkuRYXWhU-21" target="_00xn_NPz58ZkuRYXWhU-19">
          <mxGeometry relative="1" as="geometry" />
        </mxCell>
        <mxCell id="_00xn_NPz58ZkuRYXWhU-21" value="Git SCM" style="verticalLabelPosition=bottom;html=1;verticalAlign=top;align=center;strokeColor=none;fillColor=#00BEF2;shape=mxgraph.azure.github_code;pointerEvents=1;" vertex="1" parent="1">
          <mxGeometry x="-500" y="308" width="50" height="50" as="geometry" />
        </mxCell>
        <mxCell id="_00xn_NPz58ZkuRYXWhU-22" style="edgeStyle=orthogonalEdgeStyle;rounded=0;orthogonalLoop=1;jettySize=auto;html=1;exitX=0.5;exitY=1;exitDx=0;exitDy=0;" edge="1" parent="1" source="_00xn_NPz58ZkuRYXWhU-13" target="_00xn_NPz58ZkuRYXWhU-13">
          <mxGeometry relative="1" as="geometry" />
        </mxCell>
        <mxCell id="_00xn_NPz58ZkuRYXWhU-27" style="edgeStyle=orthogonalEdgeStyle;rounded=0;orthogonalLoop=1;jettySize=auto;html=1;" edge="1" parent="1" source="_00xn_NPz58ZkuRYXWhU-17" target="V-7barsqVD6I8_-UEfz1-19">
          <mxGeometry relative="1" as="geometry">
            <Array as="points">
              <mxPoint x="-10" y="395" />
              <mxPoint x="-10" y="395" />
            </Array>
          </mxGeometry>
        </mxCell>
        <mxCell id="_00xn_NPz58ZkuRYXWhU-28" style="edgeStyle=orthogonalEdgeStyle;rounded=0;orthogonalLoop=1;jettySize=auto;html=1;exitX=0.5;exitY=1;exitDx=0;exitDy=0;" edge="1" parent="1" source="_00xn_NPz58ZkuRYXWhU-13" target="_00xn_NPz58ZkuRYXWhU-13">
          <mxGeometry relative="1" as="geometry" />
        </mxCell>
      </root>
    </mxGraphModel>
  </diagram>
</mxfile>
